# xmcd CD database file
#
# Track frame offsets:
#	150
#	8585
#	20154
#	33838
#	50289
#	62862
#	73854
#	90132
#	102457
#
# Disc length: 1461 seconds
#
# Revision: 0
# Processed by: cddbd v1.5.2PL0 Copyright (c) Steve Scherf et al.
# Submitted via: CDex 1.73
#
DISCID=6b05b309
DTITLE=Various Artist - 5000 Miles Away from Home 
DYEAR=1957
DGENRE=Country
TTITLE0=Intro
TTITLE1=The Browns -   It Takes a Long, Long Train With a Red Carboose	
TTITLE2=Hank Locklin - A Good Woman's Love
TTITLE3=Janis Martin - I'm Walking
TTITLE4=Jim Reeves -  Have I Told You Lately That I Love You
TTITLE5=Del Wood - Twelfth Street Rag
TTITLE6=Tommy Hill - Fraulein
TTITLE7=Jim Reeves - Courtin' in the Rain
TTITLE8=Leo Jackson - Wildwood Flower
EXTD=YEAR: 1957
EXTT0=
EXTT1=
EXTT2=
EXTT3=
EXTT4=
EXTT5=
EXTT6=
EXTT7=
EXTT8=
PLAYORDER=
